# xmcd CD database file
# Copyright (C) 1996 Ti Kan
#
# Track frame offsets:
#  150
#  40047
#  51987
#  69069
#  81951
#  101180
#  118017
#  137624
#  152580
#  166697
#  184694
#  204766
#  223015
#  236019
#  253411
#
# Disc length: 3582 seconds
#
# Revision: 1
# Processed by: cddbd v1.4b41PL1 Copyright (c) Steve Scherf et al.
# Submitted via: CDWizzard Release:4.15
#
DISCID=ca0dfc0f
DTITLE=Various Artist - Mooky's Jams!
DYEAR=1900
DGENRE=
TTITLE0=Data Track (not playable)
TTITLE1=Stairway to Heaven [G's Incorporated]
TTITLE2=So Strung Out [C-Block]
TTITLE3=Please Don't Go [Double You]
TTITLE4=Missing [Everything But the Girl]
TTITLE5=Total Eclipse of the Heart [Nicki French]
TTITLE6=Informer [Snow]
TTITLE7=Captain Jack [Captain Jack]
TTITLE8=Ditty [Paper Boy]
TTITLE9=Whoomp! There It Is [Tag Team]
TTITLE10=Take Me In Your Arms [L'il Suzy]
TTITLE11=Gangsta's Paradise [Coolio]
TTITLE12=I'm Too Sexy [Right Said Fred]
TTITLE13=In the Name of Love [Mistri]
TTITLE14=French Kiss [Lil Louis]
EXTD=Disc created by Mooky on 21 October 1997 for his buddy Cousy.
EXTT0=
EXTT1=
EXTT2=
EXTT3=
EXTT4=
EXTT5=
EXTT6=
EXTT7=
EXTT8=
EXTT9=
EXTT10=
EXTT11=
EXTT12=
EXTT13=
EXTT14=
PLAYORDER=
